        <svg viewBox="0 0 1000 600" preserveAspectRatio="xMidYMid meet" xmlns="http://www.w3.org/2000/svg">
                <!-- Parchment Background -->
                <rect width="1000" height="600" fill="#e8dcca" />
                <!-- Subtle texture lines -->
                <path d="M 100 50 Q 200 40 300 60 T 500 50 T 700 60 T 900 40" fill="none" stroke="#d4c3b3" stroke-width="1.5" opacity="0.6"/>
                <path d="M 50 550 Q 150 560 250 540 T 450 550 T 650 540 T 850 560 T 950 550" fill="none" stroke="#d4c3b3" stroke-width="1.5" opacity="0.6"/>

                <defs>
                    <filter id="rough-paper">
                        <feTurbulence type="fractalNoise" baseFrequency="0.04" result="noise" />
                        <feDisplacementMap in="SourceGraphic" in2="noise" scale="4" xChannelSelector="R" yChannelSelector="G" />
                    </filter>
                    <marker id="ink-arrow" markerWidth="12" markerHeight="12" refX="10" refY="6" orient="auto">
                        <path d="M 2 2 L 10 6 L 2 10" fill="none" stroke="#3e2723" stroke-width="2.5" stroke-linecap="round" stroke-linejoin="round" />
                    </marker>
                </defs>

                <!-- Title and Subtitle -->
                <text x="50" y="50" font-family="'Cinzel', serif" font-size="14px" fill="#5d4037" letter-spacing="1px">YOUR LEGION</text>
                <text x="50" y="90" font-family="'Cinzel', serif" font-size="32px" font-weight="bold" fill="#5d4037">Architecture Overview</text>
                <text x="50" y="130" font-family="'Noto Serif TC', serif" font-size="16px" fill="#795548">A plugin layer that turns OpenCode into a configured multi-agent workspace.</text>

                <g stroke="#3e2723" stroke-width="2.5" fill="none" stroke-dasharray="8,6" marker-end="url(#ink-arrow)" filter="url(#rough-paper)">
                    <!-- Arrows -->
                    <!-- Left to Center -->
                    <path d="M 280 235 Q 300 230 310 235" />
                    <!-- Center to Right -->
                    <path d="M 680 235 Q 700 240 710 235" />

                    <!-- Bottom to Center (Ending before the box to avoid filter overlap) -->
                    <path d="M 155 420 C 155 360 360 380 360 325" />
                    <path d="M 375 420 C 375 360 430 360 430 325" />
                    <path d="M 595 420 C 595 360 570 360 570 325" />
                    <path d="M 815 420 C 815 360 640 380 640 325" />
                </g>

                <g filter="url(#rough-paper)">
                    <!-- Center Main Block -->
                    <rect x="320" y="160" width="360" height="150" fill="#fcf6eb" stroke="#5d4037" stroke-width="2.5" rx="3" />
                    <!-- Red Wax Seal -->
                    <circle cx="350" cy="200" r="12" fill="#b71c1c" />
                    <circle cx="350" cy="200" r="9" fill="none" stroke="#ffebee" stroke-width="0.5" opacity="0.5"/>
                    <path d="M 346 196 L 354 204 M 354 196 L 346 204" stroke="#ffebee" stroke-width="1.5" opacity="0.6"/>
                    <text x="375" y="205" font-family="'Cinzel', serif" font-size="12px" fill="#795548" letter-spacing="1px">PLUGIN</text>
                    <text x="350" y="245" font-family="'Cinzel', serif" font-size="28px" fill="#5d4037">your-legion</text>
                    <text x="350" y="280" font-family="'Noto Serif TC', serif" font-size="14px" fill="#795548">Combines agents, config, and commands</text>

                    <!-- Left Block -->
                    <rect x="60" y="180" width="220" height="110" fill="#fcf6eb" stroke="#5d4037" stroke-width="2" rx="2" />
                    <circle cx="90" cy="215" r="9" fill="#b71c1c" />
                    <text x="115" y="220" font-family="'Cinzel', serif" font-size="12px" fill="#795548" letter-spacing="1px">HOST</text>
                    <text x="90" y="250" font-family="'Cinzel', serif" font-size="22px" fill="#5d4037">OpenCode</text>
                    <text x="90" y="275" font-family="'Noto Serif TC', serif" font-size="13px" fill="#795548">Loads the plugin</text>

                    <!-- Right Block -->
                    <rect x="720" y="180" width="220" height="110" fill="#fcf6eb" stroke="#5d4037" stroke-width="2" rx="2" />
                    <circle cx="750" cy="215" r="9" fill="#b71c1c" />
                    <text x="775" y="220" font-family="'Cinzel', serif" font-size="12px" fill="#795548" letter-spacing="1px">OUTPUT</text>
                    <text x="750" y="250" font-family="'Cinzel', serif" font-size="22px" fill="#5d4037">Workspace</text>
                    <text x="750" y="275" font-family="'Noto Serif TC', serif" font-size="13px" fill="#795548">Ready at startup</text>

                    <!-- Bottom Blocks -->
                    <!-- Block 1 -->
                    <rect x="60" y="420" width="190" height="90" fill="#efe4ce" stroke="#795548" stroke-width="1.5" rx="1" />
                    <text x="80" y="455" font-family="'Noto Serif TC', serif" font-size="14px" fill="#5d4037">System agents</text>
                    <text x="80" y="485" font-family="'Noto Serif TC', serif" font-size="13px" fill="#795548">Protected built-ins</text>

                    <!-- Block 2 -->
                    <rect x="280" y="420" width="190" height="90" fill="#efe4ce" stroke="#795548" stroke-width="1.5" rx="1" />
                    <text x="300" y="455" font-family="'Noto Serif TC', serif" font-size="14px" fill="#5d4037">Custom agents</text>
                    <text x="300" y="485" font-family="'Noto Serif TC', serif" font-size="13px" fill="#795548">YAML-defined add-ons</text>

                    <!-- Block 3 -->
                    <rect x="500" y="420" width="190" height="90" fill="#efe4ce" stroke="#795548" stroke-width="1.5" rx="1" />
                    <text x="520" y="455" font-family="'Noto Serif TC', serif" font-size="14px" fill="#5d4037">Configuration</text>
                    <text x="520" y="485" font-family="'Noto Serif TC', serif" font-size="13px" fill="#795548">Models and settings</text>

                    <!-- Block 4 -->
                    <rect x="720" y="420" width="190" height="90" fill="#efe4ce" stroke="#795548" stroke-width="1.5" rx="1" />
                    <text x="740" y="455" font-family="'Noto Serif TC', serif" font-size="14px" fill="#5d4037">/dio loop</text>
                    <text x="740" y="485" font-family="'Noto Serif TC', serif" font-size="13px" fill="#795548">Completion workflow</text>
                </g>
            </svg>
